<?xml version="1.0" encoding="UTF-8" standalone="no"?>
<svg
   xmlns:dc="http://purl.org/dc/elements/1.1/"
   xmlns:cc="http://creativecommons.org/ns#"
   xmlns:rdf="http://www.w3.org/1999/02/22-rdf-syntax-ns#"
   xmlns:svg="http://www.w3.org/2000/svg"
   xmlns="http://www.w3.org/2000/svg"
   xmlns:sodipodi="http://sodipodi.sourceforge.net/DTD/sodipodi-0.dtd"
   xmlns:inkscape="http://www.inkscape.org/namespaces/inkscape"
   version="1.0"
   width="1024px"
   height="1024px"
   viewBox="0 0 1280.000000 586.000000"
   preserveAspectRatio="xMidYMid meet"
   id="svg22"
   sodipodi:docname="mustache.svg"
   inkscape:version="1.0.2 (e86c870879, 2021-01-15)">
  <defs
     id="defs26" />
  <sodipodi:namedview
     pagecolor="#ffffff"
     bordercolor="#666666"
     borderopacity="1"
     objecttolerance="10"
     gridtolerance="10"
     guidetolerance="10"
     inkscape:pageopacity="0"
     inkscape:pageshadow="2"
     inkscape:window-width="769"
     inkscape:window-height="480"
     id="namedview24"
     showgrid="false"
     inkscape:zoom="0.2421875"
     inkscape:cx="512"
     inkscape:cy="512"
     inkscape:window-x="509"
     inkscape:window-y="218"
     inkscape:window-maximized="0"
     inkscape:current-layer="svg22" />
  <metadata
     id="metadata2">
Created by potrace 1.15, written by Peter Selinger 2001-2017
<rdf:RDF>
  <cc:Work
     rdf:about="">
    <dc:format>image/svg+xml</dc:format>
    <dc:type
       rdf:resource="http://purl.org/dc/dcmitype/StillImage" />
    <dc:title></dc:title>
  </cc:Work>
</rdf:RDF>
</metadata>
  <g
     transform="matrix(0.04744199,0,0,-0.05679988,356.31133,447.48978)"
     fill="#ffa500"
     stroke="none"
     id="g20">
    <path
       d="m 7475,4238 c -99,-9 -221,-30 -281,-49 -17,-5 -39,-9 -48,-9 -40,0 -261,-82 -386,-144 -106,-52 -310,-188 -310,-207 0,-5 53,-10 118,-10 l 117,-1 -155,-24 c -146,-22 -179,-23 -550,-21 l -395,2 175,23 c 128,16 227,22 370,22 l 195,1 -30,24 c -148,122 -478,291 -660,339 -50,13 -371,9 -480,-5 -44,-6 -207,-14 -362,-18 -205,-4 -285,-9 -295,-18 -6,-7 -20,-13 -29,-13 -27,0 -232,-82 -354,-142 -41,-20 -51,-27 -30,-24 181,33 366,54 354,41 -7,-6 -333,-55 -370,-55 -28,0 -201,-81 -244,-114 -19,-14 -13,-15 70,-17 l 90,-1 -131,-18 c -158,-21 -88,16 -694,-360 -157,-97 -330,-203 -385,-235 -55,-32 -121,-71 -148,-87 -26,-15 -52,-28 -57,-28 -6,0 -10,-3 -10,-7 0,-5 125,-2 277,4 153,7 289,12 303,10 14,-1 -63,-17 -170,-36 -321,-55 -422,-77 -432,-95 -7,-13 -29,-16 -121,-16 -105,0 -117,-2 -186,-32 l -74,-33 274,-5 274,-5 -260,-38 c -187,-27 -295,-37 -385,-37 -80,-1 -147,-6 -185,-16 -150,-39 -292,-40 -396,-3 -44,16 -75,20 -142,17 -48,-2 -87,0 -87,5 0,4 19,8 43,8 23,1 55,4 71,8 l 29,6 -39,28 c -22,15 -58,54 -79,87 -21,33 -40,60 -41,60 -2,0 -65,-10 -141,-21 -79,-13 -215,-25 -318,-28 l -180,-6 1,-63 c 1,-34 3,-64 6,-67 2,-3 119,11 259,30 150,21 291,35 344,34 79,-1 51,-6 -220,-39 -171,-22 -326,-40 -345,-42 -35,-3 -35,-3 -31,-48 6,-83 -3,-80 218,-80 108,0 194,-2 192,-4 -2,-2 -88,-12 -192,-22 -132,-13 -187,-22 -187,-30 0,-23 61,-178 110,-279 l 48,-100 318,3 c 176,2 316,0 312,-4 -5,-4 -143,-12 -309,-18 l -300,-11 53,-72 53,-73 h 484 c 266,0 482,-2 480,-4 -6,-6 -274,-32 -579,-56 -146,-12 -274,-25 -284,-29 -16,-6 -9,-15 48,-64 l 67,-57 h 481 c 265,0 479,-2 476,-5 -19,-19 -201,-34 -499,-42 -184,-4 -342,-8 -351,-7 -10,0 -18,-3 -18,-6 0,-11 104,-73 225,-135 126,-64 107,-63 442,-39 124,8 227,13 229,11 10,-10 -232,-41 -361,-46 l -140,-6 100,-32 c 55,-18 138,-45 185,-60 l 85,-28 750,-5 c 494,-3 706,-8 620,-12 -71,-5 -373,-8 -669,-8 -297,0 -537,-3 -533,-6 3,-3 34,-10 69,-15 35,-5 97,-15 138,-24 320,-64 920,-57 1257,16 23,5 57,9 75,9 18,0 76,9 128,20 52,11 126,25 164,30 38,5 103,18 145,29 42,11 101,24 131,29 30,5 80,17 110,25 30,8 75,19 100,23 40,8 32,10 -65,14 l -110,5 61,22 c 52,20 81,23 200,23 76,0 157,5 179,11 22,6 56,14 75,19 31,7 86,26 185,61 17,6 66,24 110,39 l 80,29 -135,1 c -123,1 -132,3 -105,15 21,10 74,14 174,15 159,0 180,5 356,90 150,71 166,80 304,157 169,94 383,254 521,389 47,46 88,84 92,84 4,0 61,-54 127,-120 67,-66 145,-137 174,-158 76,-57 285,-186 392,-243 l 94,-50 343,5 c 189,4 339,4 333,1 -36,-16 -284,-49 -410,-54 l -150,-6 45,-22 c 89,-42 229,-100 315,-129 22,-7 92,-32 155,-54 215,-77 225,-79 485,-81 l 220,-1 -127,-22 c -69,-11 -129,-24 -132,-27 -6,-5 129,-39 244,-61 30,-6 105,-21 166,-34 61,-13 127,-24 145,-24 19,0 52,-5 74,-10 87,-22 233,-38 520,-60 285,-21 465,-22 690,-5 121,10 249,19 285,21 100,7 127,17 60,24 -46,4 -24,9 143,28 109,13 233,32 275,42 99,25 243,72 238,77 -4,5 -159,-12 -666,-72 -616,-73 -657,-76 -880,-73 l -205,3 285,34 c 157,18 508,60 780,93 315,38 559,63 670,67 190,8 177,4 325,86 28,15 61,34 75,41 14,8 36,23 50,34 l 25,21 -25,-6 c -203,-43 -652,-93 -629,-71 9,9 636,116 679,116 38,0 53,6 95,41 81,67 117,100 114,104 -2,1 -146,-12 -319,-31 -173,-18 -326,-33 -340,-33 -64,2 297,50 470,63 107,8 202,17 210,21 46,20 220,252 291,387 43,84 111,249 105,255 -2,2 -91,-13 -197,-34 l -194,-38 -550,-3 c -302,-1 -546,0 -543,4 12,12 362,44 588,54 124,5 241,14 260,19 19,6 53,15 75,21 22,6 160,14 307,17 l 267,6 11,30 c 20,59 15,67 -42,68 l -53,2 57,9 c 64,11 68,17 68,107 v 53 l -62,-6 c -35,-3 -205,-9 -378,-12 l -315,-6 -41,-29 c -23,-15 -63,-40 -90,-53 -46,-24 -47,-25 -19,-26 17,0 143,9 280,20 258,21 565,26 492,9 -227,-54 -1136,-103 -1277,-70 -83,20 -213,67 -308,111 l -85,40 -361,1 c -236,1 -342,4 -306,10 30,4 145,20 255,34 110,15 213,30 229,34 l 30,7 -40,23 c -46,28 16,33 -605,-49 -448,-58 -474,-60 -655,-58 l -189,3 155,23 c 333,51 656,92 905,117 143,14 267,27 275,28 8,1 -10,18 -40,37 -30,19 -122,82 -204,140 -82,58 -169,120 -195,137 -54,39 -59,39 -204,13 -279,-50 -524,-80 -646,-80 -68,0 -122,2 -120,5 3,2 68,14 145,25 260,38 704,113 704,119 0,3 -26,23 -57,43 -32,21 -116,76 -188,123 -111,72 -137,85 -175,86 -38,1 -41,2 -16,8 37,8 37,8 -139,108 -222,125 -514,246 -715,297 -239,60 -548,80 -835,54 z M 5438,4035 c -2,-3 -113,-23 -247,-45 -223,-37 -257,-40 -433,-40 -105,0 -189,2 -187,4 10,10 445,67 569,75 162,10 305,13 298,6 z m 481,0 c -8,-7 -218,-37 -232,-32 -7,2 31,11 83,19 99,16 157,21 149,13 z m 2319,0 c -2,-3 -136,-23 -297,-45 l -293,-40 -342,1 c -187,1 -332,4 -321,6 11,3 124,23 250,43 l 230,38 389,1 c 214,1 387,-1 384,-4 z m -2575,-42 c -7,-2 -21,-2 -30,0 -10,3 -4,5 12,5 17,0 24,-2 18,-5 z m -758,-198 c -141,-24 -196,-27 -88,-5 32,7 74,16 93,20 19,4 58,8 85,8 35,0 7,-7 -90,-23 z m 3940,20 c -26,-10 -302,-45 -343,-44 l -47,1 45,9 c 80,17 377,45 345,34 z m -750,-35 c -16,-4 -46,-8 -65,-7 h -35 l 40,7 c 22,4 51,7 65,7 22,1 22,0 -5,-7 z M 4355,3630 c -16,-4 -46,-8 -65,-8 l -35,1 35,7 c 19,4 49,7 65,8 h 30 z m 1025,-1 c -56,-10 -738,-9 -690,1 19,4 193,7 385,7 206,0 331,-3 305,-8 z m 1225,1 c -16,-4 -102,-7 -190,-7 -101,0 -142,3 -110,7 70,10 338,10 300,0 z m 2255,0 c -14,-4 -135,-8 -270,-8 -135,0 -229,4 -210,8 48,10 511,10 480,0 z m 415,0 c -71,-12 -136,-11 -110,0 11,5 52,8 90,8 l 70,-1 z m -4500,-85 c -5,-3 -139,-22 -296,-45 -264,-37 -303,-40 -490,-39 -228,2 -229,1 76,53 191,32 212,34 460,34 143,0 256,-1 250,-3 z m 1414,0 c -3,-2 -95,-21 -205,-41 l -199,-37 -385,-5 c -212,-2 -382,-1 -378,3 5,5 387,63 518,78 51,6 654,8 649,2 z m 2249,0 c -10,-11 -376,-47 -1053,-105 -672,-58 -1007,-80 -994,-66 3,3 114,24 245,46 208,34 281,41 559,55 279,13 493,34 670,64 53,9 582,15 573,6 z m 947,0 c -19,-8 -328,-56 -740,-116 -347,-50 -430,-59 -545,-58 -78,0 -127,4 -115,8 11,5 114,27 230,51 269,55 823,118 1035,118 80,0 141,-1 135,-3 z M 7670,3384 c -62,-12 -239,-20 -228,-9 7,7 170,22 238,22 l 55,1 z m 1799,-248 c -13,-13 -582,-96 -864,-126 -55,-5 -120,-13 -145,-16 -25,-3 -43,-3 -40,0 3,3 107,33 230,68 222,62 227,63 385,68 210,8 439,11 434,6 z m -5114,-16 c -11,-5 -227,-38 -480,-75 l -460,-65 -255,1 -255,1 135,24 c 74,14 230,43 345,66 123,24 258,44 325,48 172,10 669,10 645,0 z m 1253,5 c -5,-5 -222,-23 -1043,-85 -220,-16 -425,-32 -455,-35 -123,-11 -14,8 370,64 l 405,60 h 364 c 200,1 362,-1 359,-4 z m 2469,-11 c -3,-3 -12,-4 -19,-1 -8,3 -5,6 6,6 11,1 17,-2 13,-5 z m -2497,-70 c -8,-2 -104,-17 -212,-34 -182,-28 -217,-30 -440,-29 l -243,1 405,33 c 365,29 532,39 490,29 z m 2729,-8 c -16,-15 -208,-57 -252,-54 -47,3 -37,6 88,29 144,28 171,32 164,25 z m -559,-32 c -30,-8 -89,-16 -130,-19 -66,-4 -70,-3 -30,5 108,24 248,36 160,14 z m -1305,-14 c -16,-4 -57,-7 -90,-7 h -60 l 55,7 c 30,4 71,7 90,7 l 35,1 z M 4485,2875 c -5,-2 -116,-20 -247,-39 l -236,-36 -669,1 -668,1 245,38 245,38 h 670 c 369,0 666,-1 660,-3 z m 990,-36 c -238,-38 -242,-39 -490,-36 l -250,2 275,36 c 243,33 300,37 490,37 h 215 z m 950,26 c -30,-12 -380,-65 -422,-64 -29,1 37,14 167,34 197,30 281,40 255,30 z m 1825,-33 55,-7 -65,-12 c -60,-11 -396,-20 -406,-11 -2,3 44,12 103,20 116,17 224,20 313,10 z m -1050,-18 c -86,-11 -246,-17 -210,-8 34,9 170,21 235,21 h 70 z m 2430,3 c -42,-12 -1049,-22 -1036,-10 6,7 189,10 986,20 74,1 81,0 50,-10 z M 2495,2665 c -45,-18 -301,-38 -576,-45 -179,-5 -363,-14 -410,-20 -46,-6 -199,-12 -339,-15 -295,-4 -284,-1 160,49 289,33 303,34 735,34 242,0 436,-1 430,-3 z m 1575,-1 c -80,-7 -417,-8 -407,-2 7,4 109,7 227,6 118,-1 199,-3 180,-4 z m 3445,0 c -5,-2 -89,-20 -185,-39 -174,-36 -406,-58 -385,-38 8,8 169,55 260,76 25,6 324,7 310,1 z m 1060,1 c -5,-3 -86,-16 -180,-30 -93,-14 -206,-32 -250,-40 -58,-10 -160,-14 -369,-15 -159,0 -286,3 -283,6 3,4 84,24 179,44 l 173,38 h 370 c 204,0 366,-1 360,-3 z m 1800,0 c -11,-4 -272,-35 -520,-61 -180,-19 -1141,-32 -1114,-15 14,9 336,59 469,74 45,5 1178,7 1165,2 z m -3495,-21 c -25,-8 -88,-26 -140,-39 -92,-24 -102,-25 -470,-25 -216,0 -369,4 -360,9 41,24 612,66 920,68 l 95,1 z m -1505,-39 c -44,-8 -98,-13 -120,-13 -51,1 103,25 160,25 25,1 11,-4 -40,-12 z m -730,-5 c -33,-4 -87,-8 -120,-7 -60,0 -60,0 -15,7 25,4 79,7 120,7 h 75 z m -847,-17 c -10,-2 -26,-2 -35,0 -10,3 -2,5 17,5 19,0 27,-2 18,-5 z m 5942,-257 c -8,-8 -161,-12 -533,-14 -287,-2 -518,1 -513,5 4,4 197,10 429,13 232,3 469,6 525,6 77,1 101,-1 92,-10 z m 772,2 c -13,-13 -313,-26 -301,-13 4,3 69,10 145,14 77,4 146,9 154,10 11,1 11,-2 2,-11 z m 1332,-2 c -21,-12 -1014,-23 -1002,-11 13,14 197,20 602,21 311,1 414,-2 400,-10 z m -8849,-97 c -22,-4 -269,-8 -550,-7 -280,0 -494,4 -475,8 19,4 267,7 550,8 297,0 498,-4 475,-9 z m 1950,-59 c -11,-5 -51,-9 -90,-9 -38,-1 -133,-8 -210,-16 -104,-11 -260,-15 -610,-14 -258,0 -461,4 -450,9 12,4 264,11 560,14 297,4 587,10 645,15 155,11 179,11 155,1 z m 500,4 c -48,-8 -163,-9 -159,-2 3,4 44,7 92,7 48,-1 78,-3 67,-5 z m -3015,-35 c -56,-10 -1118,-9 -1070,1 19,4 278,7 575,7 301,0 520,-3 495,-8 z m 810,-99 c -6,-10 -9,-25 -8,-32 2,-9 -40,-15 -162,-24 -91,-7 -194,-18 -230,-25 -69,-12 -760,-26 -748,-14 3,3 95,22 205,40 109,19 243,43 298,54 83,16 148,19 378,20 273,1 278,1 267,-19 z m 737,14 c -4,-4 -102,-11 -219,-15 -222,-8 -419,-2 -396,12 15,10 625,12 615,3 z m 1058,-5 c -22,-4 -76,-7 -120,-7 l -80,2 75,6 c 41,4 95,7 120,7 l 45,1 z m 5204,7 c -19,-18 -662,-86 -676,-72 -4,3 0,6 8,7 8,0 86,15 174,34 143,30 178,33 329,34 93,1 167,-1 165,-3 z m 711,-12 c -200,-27 -707,-71 -716,-61 -2,2 83,19 189,39 181,33 204,35 407,35 l 215,1 z m -2085,-50 c -5,-2 -100,-19 -210,-39 -194,-34 -205,-35 -450,-34 l -250,1 155,30 c 122,23 198,31 355,37 231,9 414,11 400,5 z m -4055,-51 c -36,-8 -132,-16 -215,-18 l -150,-4 155,14 c 85,8 162,16 170,19 8,2 35,4 60,4 44,0 44,-1 -20,-15 z m 5805,-13 c -16,-4 -55,-7 -85,-7 h -55 l 60,7 c 33,4 71,7 85,7 22,1 21,0 -5,-7 z m -638,-86 c -3,-3 -178,-30 -389,-60 l -383,-54 -420,1 c -231,0 -415,2 -410,5 9,3 120,14 740,74 116,12 278,24 360,29 183,10 511,13 502,5 z m -5232,-37 c -21,-13 -396,-25 -383,-12 13,14 109,23 253,24 122,0 146,-2 130,-12 z m 3395,-27 c -30,-5 -73,-8 -95,-8 l -40,1 35,7 c 19,4 62,7 95,7 h 60 z M 2723,1620 c -29,-4 -108,-10 -175,-13 l -123,-6 70,14 c 39,7 117,13 175,13 87,0 96,-2 53,-8 z m 1443,-16 -70,-24 -555,1 -556,1 150,23 c 139,21 185,22 625,23 l 475,1 z m 5201,-4 c -154,-31 -422,-61 -537,-59 -63,1 -30,8 215,44 163,24 327,43 375,43 h 85 z m 918,14 c -215,-28 -566,-65 -583,-62 -9,2 102,18 248,37 146,18 267,35 269,37 2,2 41,3 85,3 l 81,-2 z"
       id="path4" />
    <path
       d="m 11220,4153 c -76,-6 -171,-33 -242,-69 -38,-19 -68,-38 -68,-42 0,-6 271,-6 640,1 l 135,2 -70,34 c -115,56 -269,84 -395,74 z"
       id="path6" />
    <path
       d="m 1325,4040 -100,-28 305,-1 h 305 l -95,29 c -132,41 -270,41 -415,0 z"
       id="path8" />
    <path
       d="m 11590,3980 c -87,-24 -125,-29 -225,-30 h -120 l 66,-40 c 116,-69 239,-219 289,-350 7,-19 14,-36 16,-38 1,-2 30,4 64,13 35,9 89,15 128,13 l 67,-3 -120,-36 -120,-35 5,-45 c 3,-24 5,-90 5,-147 v -102 l 150,-1 150,-1 -159,-34 c -88,-19 -160,-36 -161,-37 0,-1 -15,-26 -33,-56 -18,-29 -31,-55 -30,-56 2,-1 162,5 356,14 l 352,15 v 34 35 l -97,-7 c -176,-11 -398,-19 -393,-14 3,3 112,27 243,54 224,45 238,50 233,69 -3,11 -6,30 -6,43 v 23 l -162,-5 c -184,-6 -161,8 33,20 l 116,7 -10,39 c -6,24 -14,37 -22,34 -7,-2 -54,-7 -106,-10 -98,-5 -67,5 54,19 65,7 64,4 26,91 -11,24 -26,44 -34,44 -16,0 -279,-38 -315,-45 -17,-4 -20,-3 -10,4 20,12 258,79 293,83 l 28,3 -47,75 c -65,104 -125,180 -206,261 -55,56 -75,69 -101,70 -25,0 -28,2 -13,8 17,7 16,9 -11,29 -38,27 -44,27 -173,-8 z m 38,-237 c -15,-2 -42,-2 -60,0 -18,2 -6,4 27,4 33,0 48,-2 33,-4 z"
       id="path10" />
    <path
       d="m 1034,3901 c -122,-85 -130,-81 141,-81 h 237 l 37,29 c 106,83 260,113 384,75 29,-8 85,-31 125,-51 67,-32 113,-38 97,-13 -4,6 -29,29 -57,50 l -50,40 h -422 -423 z"
       id="path12" />
    <path
       d="m 10768,3908 c -19,-24 -40,-53 -47,-65 -10,-20 -9,-23 9,-23 11,0 37,15 57,33 21,19 58,48 82,65 l 44,32 h -55 c -53,0 -57,-2 -90,-42 z"
       id="path14" />
    <path
       d="m 835,3713 c -25,-32 -45,-61 -45,-65 0,-5 73,-9 163,-9 l 162,-2 -150,-13 c -82,-7 -162,-13 -177,-13 -20,-1 -32,-9 -43,-32 -9,-17 -15,-32 -13,-34 2,-2 116,5 253,16 138,10 253,18 257,19 4,0 17,19 29,43 12,23 37,63 55,90 19,26 34,49 34,52 0,3 -108,5 -240,5 H 880 Z"
       id="path16" />
    <path
       d="m 948,3491 c -141,-20 -259,-39 -261,-41 -11,-14 -41,-103 -53,-160 -16,-73 -45,-272 -40,-277 1,-2 80,8 175,22 118,17 216,25 308,25 h 136 l -7,38 c -13,74 -17,208 -8,270 l 9,62 -26,1 -26,1 27,9 c 15,6 29,18 32,27 2,9 7,27 11,40 4,15 2,22 -7,21 -7,-1 -129,-18 -270,-38 z"
       id="path18" />
  </g>
</svg>
