<?xml version="1.0" encoding="UTF-8" standalone="no"?>
<svg
   xmlns:dc="http://purl.org/dc/elements/1.1/"
   xmlns:cc="http://creativecommons.org/ns#"
   xmlns:rdf="http://www.w3.org/1999/02/22-rdf-syntax-ns#"
   xmlns:svg="http://www.w3.org/2000/svg"
   xmlns="http://www.w3.org/2000/svg"
   xmlns:sodipodi="http://sodipodi.sourceforge.net/DTD/sodipodi-0.dtd"
   xmlns:inkscape="http://www.inkscape.org/namespaces/inkscape"
   version="1.0"
   width="1024px"
   height="1024px"
   viewBox="0 0 1280.000000 640.000000"
   preserveAspectRatio="xMidYMid meet"
   id="svg8"
   sodipodi:docname="sunglasses.svg"
   inkscape:version="1.0.2 (e86c870879, 2021-01-15)">
  <defs
     id="defs12" />
  <sodipodi:namedview
     pagecolor="#ffffff"
     bordercolor="#666666"
     borderopacity="1"
     objecttolerance="10"
     gridtolerance="10"
     guidetolerance="10"
     inkscape:pageopacity="0"
     inkscape:pageshadow="2"
     inkscape:window-width="778"
     inkscape:window-height="480"
     id="namedview10"
     showgrid="false"
     inkscape:zoom="0.2421875"
     inkscape:cx="512"
     inkscape:cy="512"
     inkscape:window-x="0"
     inkscape:window-y="218"
     inkscape:window-maximized="0"
     inkscape:current-layer="svg8"
     inkscape:document-rotation="0" />
  <metadata
     id="metadata2">
Created by potrace 1.15, written by Peter Selinger 2001-2017
<rdf:RDF>
  <cc:Work
     rdf:about="">
    <dc:format>image/svg+xml</dc:format>
    <dc:type
       rdf:resource="http://purl.org/dc/dcmitype/StillImage" />
    <dc:title></dc:title>
  </cc:Work>
</rdf:RDF>
</metadata>
  <g
     transform="matrix(0.06081126,0,0,-0.05809726,262.31088,274.68236)"
     fill="#0000ff"
     stroke="solid"
     id="g6">
    <path
       d="m 2910,5554 c -201,-13 -369,-28 -460,-40 C 1552,5391 918,5059 592,4539 495,4385 406,4162 351,3935 l -27,-110 -138,-5 C 50,3815 48,3815 24,3787 1,3760 0,3755 0,3580 v -180 l 29,-32 c 29,-32 31,-33 129,-36 l 99,-4 7,-171 c 22,-583 197,-1075 522,-1467 92,-111 306,-316 414,-397 236,-177 456,-289 715,-364 1023,-298 2088,181 3105,1396 637,761 917,1470 803,2037 -5,26 -2,30 48,52 123,54 263,79 439,79 197,-1 393,-48 510,-123 73,-47 71,-43 59,-165 -29,-285 59,-652 243,-1020 313,-623 983,-1389 1598,-1825 586,-415 1204,-585 1800,-495 475,71 891,287 1255,650 195,194 322,370 435,600 156,319 234,641 247,1027 l 6,187 139,3 140,3 29,33 29,32 v 181 181 l -29,29 -29,29 h -171 -170 l -10,38 c -5,20 -17,66 -25,102 -25,113 -94,310 -146,417 -208,437 -566,739 -1121,946 -285,107 -614,174 -1074,218 -170,17 -779,17 -950,1 -327,-32 -561,-65 -762,-108 l -113,-24 H 6362 c -1806,0 -1840,0 -1933,20 -209,45 -491,85 -769,110 -118,11 -651,21 -750,14 z m 4570,-402 c -242,-166 -404,-344 -495,-542 -16,-36 -30,-67 -32,-69 -1,-2 -37,14 -80,36 -140,72 -272,107 -458,122 -216,17 -458,-19 -627,-93 l -36,-16 -41,74 c -91,166 -242,331 -400,437 -44,30 -80,57 -81,62 0,4 512,7 1138,6 1073,0 1136,-1 1112,-17 z"
       id="path4" />
  </g>
</svg>
